inDegrees=yes
name=ik_Xsens_quaternion
DataType=double
version=3
OpenSimVersion=4.4-2022-07-23-0e9fedc
endheader
time	pelvis_tilt	pelvis_list	pelvis_rotation	pelvis_tx	pelvis_ty	pelvis_tz	hip_flexion_r	hip_adduction_r	hip_rotation_r	knee_angle_r	knee_angle_r_beta	ankle_angle_r	subtalar_angle_r	mtp_angle_r	hip_flexion_l	hip_adduction_l	hip_rotation_l	knee_angle_l	knee_angle_l_beta	ankle_angle_l	subtalar_angle_l	mtp_angle_l	lumbar_extension	lumbar_bending	lumbar_rotation	arm_flex_r	arm_add_r	arm_rot_r	elbow_flex_r	pro_sup_r	wrist_flex_r	wrist_dev_r	arm_flex_l	arm_add_l	arm_rot_l	elbow_flex_l	pro_sup_l	wrist_flex_l	wrist_dev_l
0	1.244304545674369e-23	-1.105828122185307e-15	4.825975629876172e-24	3.393864330800159e-18	0.93	-1.40118784064963e-18	-1.961556018586613e-42	-6.944142163520708e-25	1.461338074546472e-24	2.223870840066257e-15	4.522508252864875e-16	-3.763386058424802e-16	-2.46096081369066e-15	-1.197963045589897e-20	-2.108926182724388e-14	-6.422478182497757e-15	1.286438477729014e-14	0	-2.342207084050523e-15	2.681931085252278e-15	7.083757083668024e-15	-1.049245554590232e-19	-4.247901816654729e-14	-3.789908734532849e-13	6.548332903620578e-14	-1.390222070734956e-14	7.554518233660506e-17	-1.183591860647786e-14	0	0	-1.944781299513231e-16	3.413267979338536e-15	0.03892749107220192	-0.1700023802111222	89.82553126897754	0.3489544674124904	43.99893627721192	-4.580519409300936e-16	-2.806651541235833e-16
0.01666666666666667	0	0	0	0	0.93	0	0	0	0	0	0	0	0	0	0	0	0	0	0	0	0	0	0	0	0	0	0	0	0	0	0	0	-0.02660731141470399	-0.1800006513011515	89.84802900680484	0.3771595714136121	44.00358993337046	0	0
0.03333333333333333	-2.047487029791532e-29	1.406780511938108e-19	1.742337186036323e-29	-2.283749725641748e-23	0.93	-8.662600641778435e-23	4.738665633044617e-34	-1.966066089595038e-16	0	0	-3.759259035226954e-11	2.007942050401187e-18	2.455721538551081e-23	1.147085097313963e-16	-6.840258969078642e-16	8.436157870505915e-34	2.482814656717045e-17	0	-3.759239291822067e-11	-5.420179368625297e-19	-2.866324172246388e-23	9.023981769658579e-17	-2.37247463520196e-29	-3.437054366866259e-18	3.672370039977732e-29	1.40374908098137e-15	1.144972401658898e-18	1.379167591605923e-18	0	0	-1.562319233497986e-17	5.769089233263415e-17	-0.03300601482856814	-0.1275406651259032	89.8510842171876	0.4211939795272837	44.00863308259619	-1.958623044988258e-17	5.904610796293403e-18
0.05	0	0	0	0	0.93	0	0	0	0	0	4.214613136697686e-42	0	0	0	0	0	0	1.307018175373512e-39	7.461987021729765e-42	0	0	0	0	0	0	0	0	0	1.067980294227479e-39	1.841302778948285e-40	0	0	0.008500091576087667	-0.07294038366473979	89.83854027120731	0.4072950301134299	44.01352433324752	0	0
0.06666666666666667	0	0	0	0	0.93	0	0	0	0	0	0	0	0	0	0	0	0	0	0	0	0	0	0	0	0	0	0	0	0	0	0	0	0.05760976629266123	-0.02958838096564215	89.80704522401197	0.400213338301228	44.01835943729877	0	0
0.08333333333333333	-1.398739900711273e-23	3.814691220148415e-23	1.075556975627965e-19	-3.849358287781715e-21	0.93	4.699102650941455e-20	2.581357147165204e-29	-4.651330892406943e-20	3.963850827873528e-29	1.32207569463123e-14	2.307417961331924e-16	4.164713239423963e-14	-1.162637236220049e-15	6.532627415620385e-14	6.234769085583329e-18	2.158869480574848e-28	2.346611722466389e-17	1.23438497864414e-14	1.888065645012378e-16	-4.128651826620183e-14	-1.341768729412267e-15	-6.386486645826978e-18	-1.185774434195855e-23	4.251407231443555e-23	4.249045388078413e-19	7.317113002406969e-18	-4.215286770048077e-15	1.391488441378211e-15	1.234385793855065e-14	1.234384688077243e-14	3.841982362267983e-17	-3.358084074760203e-18	0.09938797729277561	-0.008922250314569101	89.75699330481015	0.396800299328202	44.02318519877134	2.267672598888956e-18	-1.86002852395398e-17
0.1	-1.252597347619072e-27	2.391622881278946e-19	2.734429488101963e-27	7.949862688500681e-24	0.93	1.027264575588241e-25	0	3.264266722463581e-23	4.482873583957193e-33	0	-3.075060326817016e-11	-3.110921007613824e-17	2.776625465964956e-22	2.376244273011744e-17	-1.034306985420201e-20	5.738078187465207e-31	-1.35712922839027e-18	0	-3.073495436168607e-11	-1.104296173452403e-16	8.571148681872939e-22	5.25770996706874e-20	-1.979901809053379e-27	-4.686222635283527e-18	2.38915920100859e-27	7.970968184301339e-15	1.845341978358979e-17	-6.00992136506223e-17	0	0	-1.177891774168782e-18	-4.128904945331401e-21	0.1429337539744626	-0.02348355227030434	89.68815532830789	0.4248932158010401	44.02814783860035	3.466922170137231e-18	-7.280560147858557e-20
0.1166666666666667	0	0	0	0	0.93	0	0	0	0	0	2.315519814387856e-41	0	0	0	0	0	0	0	4.317624584755279e-41	0	0	0	0	0	0	0	0	0	0	3.565161141694276e-39	0	0	0.1884545226860014	-0.05693908643067619	89.60939910380989	0.4393330805720826	44.03327485738451	0	0
0.1333333333333333	9.926469592359628e-24	1.697994992971782e-15	-2.819436787957616e-23	-3.939600355021618e-19	0.93	2.091525081149847e-18	-2.155227684594804e-35	1.486870927312252e-17	0	2.528489267491726e-15	4.41304628120834e-17	9.967125862196785e-14	5.445132311848653e-20	-3.73787324238281e-14	7.073150965033631e-16	-1.592612502452351e-25	-4.838261569286652e-14	2.528321905419582e-15	4.412798360598897e-17	-1.385392896062656e-13	2.063067633427561e-19	-4.165180097773828e-17	-1.302434655843127e-24	6.809955535520715e-15	-8.812225839136644e-24	2.571762769107433e-21	-2.327722335917783e-13	5.29419809593444e-14	2.528322320493618e-15	2.52832229471929e-15	4.030667382831776e-15	1.350836650838643e-15	0.2428497875752591	-0.1030768224839235	89.52598129267196	0.4529900080447132	44.03855524606548	-2.071713277180882e-14	-1.951216230023466e-15
0.15	-2.325266029630969e-28	1.169953398910433e-19	3.544707593230536e-28	-1.430456326276165e-22	0.93	-6.305962808909066e-21	8.716569607280765e-37	-1.337693100164213e-19	0	0	-1.892922368924514e-17	2.907300966630974e-17	-9.199579152444918e-20	-1.206195534006913e-22	4.456701878585336e-21	8.371579594236466e-41	-1.172890896630773e-28	0	-1.923078143011573e-17	5.313636238810469e-17	2.183944886190448e-20	4.946539736399628e-23	-2.298489172693915e-28	-5.351235384390637e-18	1.127498959880992e-18	4.411770574485278e-19	-1.473023993697824e-18	9.569077409809019e-17	0	0	-2.082975849232898e-20	7.958755939253783e-20	0.2917795117191355	-0.1387218596997379	89.44249677316523	0.4608084438035556	44.04400918876443	2.013546054135384e-19	3.86233129284167e-20
0.1666666666666667	0	0	0	0	0.93	0	0	0	0	0	0	0	0	0	0	0	0	0	0	0	0	0	0	0	0	0	0	0	0	0	0	0	0.3332508677813066	-0.1850397879583791	89.35811287831814	0.4857111722469175	44.04968077694053	0	0
0.1833333333333333	-3.19747228520461e-28	-1.501436466384953e-18	2.760286105741703e-27	1.822348046556424e-21	0.93	5.97630646639613e-22	6.646006545574082e-41	-7.600007402599679e-25	-3.113000108551058e-17	1.242153978061402e-13	2.164842053354654e-15	-5.216702637486808e-16	2.206108312400939e-17	-6.647567893600783e-20	-8.252841030094938e-28	2.989587849535794e-21	-1.177041093695295e-17	1.242157698260315e-13	2.17085023057255e-15	-6.72683035556772e-16	-4.188330539956346e-17	2.579862839814191e-19	5.198653386561965e-16	2.020814690547764e-17	6.260904313778787e-16	8.244492365174939e-17	2.845638774013104e-16	4.16238843918514e-16	1.242170711026903e-13	1.242170497427711e-13	1.897855859078259e-19	-7.938937205073906e-21	0.368382352943738	-0.2374767413195194	89.26893126494009	0.5467444172922826	44.05568563734749	-4.164249680855132e-20	-5.457422541110685e-21
0.2	-2.389783462526322e-25	1.616692774540992e-21	9.129604177559465e-27	2.243163065572493e-24	0.93	4.901419055122988e-25	-6.416648776532413e-38	-1.251921080428792e-28	7.894437209125206e-26	8.732127212698814e-08	1.524035585108551e-09	-8.56303529116333e-13	-5.220035282662265e-13	-1.345458157392991e-17	1.12949957084946e-21	-6.003620775796691e-22	-1.563145041698301e-14	8.732125291100276e-08	1.524109049166465e-09	1.592448880122938e-12	3.085741323984993e-13	3.320172360722151e-17	4.995888431815011e-13	6.936730601356049e-13	-1.905861106388509e-13	6.944826299563938e-13	1.857003697336844e-12	1.141184230322441e-12	8.732130879609196e-08	8.732128794823654e-08	-1.222872354449222e-21	-5.310818105461589e-17	0.3884980261408839	-0.2662643319719147	89.18575171434556	0.6133814658649903	44.06207551081752	8.702985577375495e-22	4.663420365706192e-17
0.2166666666666667	0	0	0	0	0.93	0	0	0	0	1.048917708853304e-38	1.537168034996424e-41	0	0	0	0	0	0	0	-3.450179713249494e-40	0	0	0	0	0	0	0	0	0	0	3.15707180360567e-38	0	0	0.4026240094769631	-0.2414159653574713	89.10676528145012	0.6249929756835243	44.06845161298244	0	0
0.2333333333333333	3.393741231784912e-24	-8.807464377107668e-15	5.578748860948294e-24	-5.233670586836406e-20	0.93	-1.373820703975097e-21	-6.595105819183748e-29	-1.015179216632127e-21	-7.410653433699484e-29	7.386077328299224e-15	1.289113683270723e-16	2.107531175988836e-13	4.228495720376315e-19	-3.814527655576239e-14	7.380051046132323e-18	4.233693248864842e-26	2.361735411896671e-15	7.386063251960196e-15	1.289125124643454e-16	-1.121391197336322e-13	-2.097831088237679e-19	2.293705020894393e-17	8.878716900161594e-24	-5.206786618565067e-17	-8.06089399054601e-25	-2.223866231855613e-20	-2.168872566393846e-13	-2.308375087091589e-13	7.386062793778227e-15	7.386075558694475e-15	-7.941662209562928e-15	-1.793889664261467e-15	0.4221057773746916	-0.2160799984626807	89.0311285292622	0.5929729801474329	44.0747906262065	1.326670390198966e-14	5.653787364713249e-16
0.25	9.747365260781788e-25	5.205599847003398e-14	-1.298692541606154e-24	-9.363372852186969e-16	0.93	1.23613807005012e-17	3.333261343537142e-28	-2.268116366186255e-18	-2.462702177818646e-32	1.506363435444847e-15	2.629100169930779e-17	5.630030656054999e-14	-4.318166920114792e-18	-6.545010053538829e-15	4.563512111079082e-16	6.975229685915809e-28	-1.080885543044864e-13	1.506363394907145e-15	2.629081961891581e-17	-3.199075707065675e-14	1.312281595698897e-17	3.355304914454914e-16	-1.596125684358226e-25	-1.823175288133034e-14	-7.59822672960622e-24	1.416673020764483e-21	1.638401933165113e-14	-1.702493855506372e-14	1.506362992274235e-15	1.506363359964494e-15	9.022648125353738e-14	7.951260531760032e-14	0.4526397191672081	-0.241418426594766	88.95839764092482	0.6070269819362822	44.0812465177256	-1.29202265724096e-14	3.126496090382156e-14
0.2666666666666667	0	0	0	0	0.93	0	0	0	0	0	-7.165655711349958e-41	0	0	0	0	0	0	0	-2.573880903450398e-41	0	0	0	0	0	0	0	0	0	0	0	0	0	0.4683794323626559	-0.2771293082641173	88.88315486721069	0.7049314491894414	44.08794565583059	0	0
0.2833333333333333	-8.365862050095181e-12	3.762893312246146e-12	-2.759417235815157e-12	0	0.93	0	0	0	0	4.124636719842037e-15	7.198849117849363e-17	-2.007212196099389e-44	0	0	0	0	0	4.124636719842037e-15	7.198849117849363e-17	-2.007212196099389e-44	0	0	-8.365862050095181e-12	3.762893312246146e-12	-2.759417235815157e-12	0	0	0	4.12463669307578e-15	4.124636745452714e-15	0	0	0.4764748271925783	-0.2638216794575858	88.81048671440685	0.8023523272474358	44.09456793659359	0	0
0.3	-2.123095426632197e-23	-5.197649726470056e-22	2.256304152562318e-25	-6.076369692527025e-24	0.93	1.60328854238729e-23	7.518338370254105e-35	-4.540427130314962e-26	-3.26874834881567e-18	9.313960361682244e-07	1.881143082171102e-08	8.231389933289193e-13	-6.545059808252141e-14	1.876754328764792e-21	6.946081931304551e-12	-8.540365205721574e-12	3.713115464066152e-11	9.315217773783322e-07	1.927384713206339e-08	-9.097442200864708e-13	3.941806363192691e-13	-8.911159732573983e-23	-2.220872009864607e-08	-1.020101645331675e-07	-2.547863659845179e-08	1.018578738474408e-12	1.905698625935453e-12	1.940903120670658e-13	9.323284909569215e-07	9.223590385359656e-07	-4.66365384124862e-22	9.82267363436988e-20	0.4828193999181625	-0.2147255829212372	88.73363348285983	0.8696793502401755	44.10112666890648	-3.561551854045985e-23	-5.79830816196895e-20
0.3166666666666667	0	0	0	0	0.93	0	0	0	0	0	0	0	0	0	0	0	0	0	0	0	0	0	0	0	0	0	0	0	0	0	0	0	0.4847193175774666	-0.1192436227523175	88.66719528289646	0.7844531427496231	44.10721892390593	0	0
